<svg id="5d41b8c6-142c-4e1b-9b6b-c7afa30a8f30" data-name="logo" xmlns="http://www.w3.org/2000/svg" viewBox="0 0 1000 1000"><defs><style>.\36 1de18e0-68fc-48b4-a1cd-bd65d45602c4{fill:#fff;}</style></defs><title>画板 1</title><path class="61de18e0-68fc-48b4-a1cd-bd65d45602c4" d="M80,950V167.62c0-6.37-.19-12.77,0-19.13.12-3.34.47-6.68.9-10l-1.07,8a127.93,127.93,0,0,1,8.5-31.82l-3,7.16a107.36,107.36,0,0,1,6.71-13.34c1.41-2.37,3-4.65,4.54-6.91,3.22-4.55-5,6.17-1.85,2.37.91-1.1,1.83-2.21,2.78-3.28a83.08,83.08,0,0,1,5.89-6c1-.92,2-1.81,3.07-2.68.58-.48,1.26-.91,1.79-1.44-.13.12-7.15,5.24-3.47,2.73a97.48,97.48,0,0,1,16.75-9.37l-7.17,3A105.87,105.87,0,0,1,140.76,80l-8,1.07a139.75,139.75,0,0,1,34.44,0l-8-1.07a105.87,105.87,0,0,1,26.37,6.93l-7.17-3A97.7,97.7,0,0,1,194.81,93c5,3.37-6.19-5.17-1.65-1.31,1.15,1,2.31,2,3.42,3a83.08,83.08,0,0,1,5.89,6c.86,1,1.68,2,2.52,2.95,3.72,4.43-4.86-6.75-1.59-2,1.49,2.16,3,4.31,4.33,6.56a107.09,107.09,0,0,1,6.92,13.69l-3-7.16a127.93,127.93,0,0,1,8.5,31.82l-1.07-8A140.1,140.1,0,0,1,220,157V819.15c0,9.86,0,19.72,0,29.58a146.33,146.33,0,0,0,6.37,41,141.59,141.59,0,0,0,25.95,48.8c13.52,16.75,32.84,28.39,53.12,35C334,982.88,365.5,980,395,980H609c28.93,0,59.82,2.66,87.61-7.16,20-7.08,38.54-18.6,51.87-35.35a140.66,140.66,0,0,0,25.44-48.78A160.2,160.2,0,0,0,780,843.89v-90.1c0-18.67.71-37.48,0-56.13-1-25.31-8.55-52-22.37-73.3-11.13-17.14-26.35-32.22-44.84-41.27-11-5.37-22.49-9.57-34.59-11.49-13.36-2.13-26.34-2.6-39.82-2.6H614.6c-15.69,0-30.72,13.8-30,30s13.18,30,30,30h23c15.7,0,30.73-13.8,30-30s-13.18-30-30-30c-18.32,0-37,1.18-55.23-1.23l8,1.07a106.92,106.92,0,0,1-26.35-7.1l7.17,3a98.71,98.71,0,0,1-16.34-9.15c-5-3.39,6.2,5.17,1.67,1.31-1.15-1-2.3-1.95-3.41-3a82.35,82.35,0,0,1-5.86-6c-.86-1-1.68-2-2.51-2.93-3.71-4.42,4.87,6.76,1.61,2.06-1.49-2.14-3-4.28-4.31-6.51a104.46,104.46,0,0,1-6.86-13.56l3,7.17A125,125,0,0,1,529.82,503l1.07,8c-1.33-10.14-.89-20.37-.89-30.56V178.48c0-10.91-.65-22,.25-32.89.15-1.91.37-3.82.62-5.72l-1.07,8a129.26,129.26,0,0,1,8.71-32.49l-3,7.16a109.75,109.75,0,0,1,6.92-13.69c1.36-2.25,2.8-4.45,4.33-6.58.42-.57.85-1.12,1.26-1.7,1.88-2.6-5.4,6.75-2.85,3.72.93-1.1,1.84-2.21,2.8-3.29,1.86-2.09,3.84-4.09,5.9-6,1.12-1,2.28-2,3.43-3,3.86-3.3-6.82,4.94-2,1.57a93,93,0,0,1,17.23-9.65l-7.17,3A106.94,106.94,0,0,1,591.75,80l-8,1.07C602.71,78.71,622.22,80,641.26,80H837.44c10.26,0,20.48-.21,30.68,1.08l-8-1.07a104.18,104.18,0,0,1,26.2,7l-7.17-3A85.46,85.46,0,0,1,895,92.88a22.65,22.65,0,0,0,1.88,1.38c-.12-.07-6.88-5.58-3.54-2.68,1,.89,2.07,1.76,3.08,2.67a83.36,83.36,0,0,1,5.91,6c.87,1,1.7,2,2.53,3,3.61,4.3-4.67-6.38-1.83-2.37,1.53,2.15,3,4.31,4.39,6.57a106.42,106.42,0,0,1,6.87,13.4l-3-7.17a128.79,128.79,0,0,1,8.83,32.75l-1.07-8a157.59,157.59,0,0,1,1,20.94V915.19c0,11.12-.14,22.26,0,33.38,0,.48,0,.95,0,1.43,0,15.69,13.8,30.73,30,30s30-13.18,30-30V155.8a168.75,168.75,0,0,0-4-36.51c-3.89-17.57-11.11-35.31-21.9-49.77-16.41-22-38.32-38-65.17-44.89C872,20.27,854.76,20,837.44,20H632.35c-19.4,0-38.55-.51-57.79,2.31-25.43,3.72-50.28,16-67.86,34.94-22.77,24.48-35.35,58.24-36.66,91.51-.56,14.15,0,28.41,0,42.57V496.14a142.74,142.74,0,0,0,9.48,52c9.26,23.44,22.85,42.78,43.18,57.93,23.11,17.22,52.68,23,81,23h34c15.7,0,30.73-13.8,30-30s-13.18-30-30-30h-23c-15.69,0-30.72,13.8-30,30s13.18,30,30,30c17.43,0,35.23-1.11,52.53,1.08l-8-1.07a104.7,104.7,0,0,1,26.27,7l-7.17-3a97.39,97.39,0,0,1,16.34,9.17c5,3.41-6.19-5.17-1.66-1.28,1.15,1,2.3,2,3.42,3q3.09,2.86,5.88,6c.87,1,1.68,2,2.52,3,2.56,3-4.73-6.31-2.84-3.71.41.57.85,1.13,1.26,1.7q2.31,3.21,4.35,6.6a107.49,107.49,0,0,1,7,13.76l-3-7.17a130.82,130.82,0,0,1,8.69,32.27l-1.07-8c2.37,17.66.93,36,.93,53.71V845.29a123.72,123.72,0,0,1-.94,16.21l1.07-8a127.93,127.93,0,0,1-8.5,31.82l3-7.16a107.36,107.36,0,0,1-6.71,13.34c-1.41,2.37-3,4.65-4.54,6.91-3.22,4.55,5-6.17,1.85-2.37-.91,1.1-1.83,2.21-2.78,3.28a83.08,83.08,0,0,1-5.89,6c-1,.92-2,1.81-3.07,2.68-.58.48-1.26.91-1.79,1.44.13-.12,7.15-5.24,3.47-2.73a97.48,97.48,0,0,1-16.75,9.37l7.17-3A105.87,105.87,0,0,1,659.24,920l8-1.07C647.4,921.4,626.93,920,607,920H364c-10.43,0-20.84.22-31.22-1.07l8,1.07a105.87,105.87,0,0,1-26.37-6.93l7.17,3a97.7,97.7,0,0,1-16.37-9.1c-5-3.37,6.19,5.17,1.65,1.31-1.15-1-2.31-1.95-3.42-3a83.08,83.08,0,0,1-5.89-6c-.86-1-1.68-2-2.52-3-3.72-4.43,4.86,6.75,1.59,2-1.49-2.16-3-4.31-4.33-6.56a107.09,107.09,0,0,1-6.92-13.69l3,7.16a127.93,127.93,0,0,1-8.5-31.82l1.07,8c-1.13-8.54-.94-17-.94-25.58V194.33c0-14.31,0-28.61,0-42.91-.05-22.4-6.15-44.71-15.74-64.8-10.16-21.31-27.7-40.21-48.63-51.25-29.93-15.8-65.17-18.5-98-12C91.93,28.34,67.22,42.55,51,63.18a140,140,0,0,0-27.22,57.19,175.11,175.11,0,0,0-3.78,37V950c0,15.69,13.8,30.73,30,30s30-13.18,30-30Z"/></svg>